:FULLY-SPECIFIED
:FORCE-ALL-JOINTS-BE-3DOF
:DEGREES
340
root 9.54536 16.5357 11.6904 6.74175 9.07824 1.60429
lfemur 16.4994 5.6862 -17.5551
ltibia 12.5342 -0 0
lfoot -0.366385 -1.1347 -0.358381
ltoes -12.5487 0 0
rfemur -38.0359 2.86436 19.1474
rtibia 38.4137 -0 0
rfoot -7.97563 1.86747 -0.152091
rtoes -18.5568 0 0
lowerback -7.52091 -3.82905 -4.0933
upperback -1.36127 -4.85049 2.37453
thorax 3.39181 -2.47188 4.18875
lowerneck -18.9192 -5.24431 -13.1288
upperneck 20.7667 -6.77434 13.4584
head 10.739 -2.62779 6.07766
lclavicle -6.98231e-15 -4.17448e-14 0
lhumerus -31.9442 -34.0929 102.959
lradius 37.481 -0 0
lwrist 9.42297 0 0
lhand -8.0987 -24.3539 -0.0389837
lfingers 7.12502 -0 0
lthumb 17.8128 4.83408 -0.041502
rclavicle -6.98231e-15 -4.17448e-14 0
rhumerus -46.9332 8.55873 -83.3275
rradius 32.344 -0 0
rwrist -16.2295 0 0
rhand -28.7559 -25.0425 -0.000705424
rfingers 7.12502 -0 0
rthumb -2.11591 -55.0089 -0.000826648
341
root 9.53775 16.5533 11.8289 6.7201 8.99499 1.4742
lfemur 14.9498 5.71374 -17.5326
ltibia 14.2342 -0 0
lfoot -0.817351 -0.724972 -0.40022
ltoes -12.1217 0 0
rfemur -37.436 3.02688 19.4428
rtibia 38.2504 -0 0
rfoot -8.38822 1.9094 -0.15542
rtoes -18.519 0 0
lowerback -7.45078 -3.71985 -3.97727
upperback -1.34961 -4.71693 2.38015
thorax 3.34517 -2.40324 4.1442
lowerneck -18.9555 -5.28415 -13.1124
upperneck 20.7892 -6.82873 13.4386
head 10.7613 -2.65203 6.05879
lclavicle -6.98231e-15 -4.17448e-14 0
lhumerus -32.4721 -33.6582 102.919
lradius 37.2395 -0 0
lwrist 9.57491 0 0
lhand -8.31599 -24.2797 -0.0428146
lfingers 7.12502 -0 0
lthumb 17.6035 4.92461 -0.0458135
rclavicle -6.98231e-15 -4.17448e-14 0
rhumerus -46.5321 8.88445 -83.3861
rradius 32.7246 -0 0
rwrist -16.4408 0 0
rhand -28.8318 -25.0312 -0.00108546
rfingers 7.12502 -0 0
rthumb -2.18922 -54.9966 -0.0012073
342
root 9.53013 16.571 11.9674 6.69708 8.90305 1.34071
lfemur 13.3338 5.74357 -17.5187
ltibia 15.9948 -0 0
lfoot -1.29579 -0.297602 -0.440295
ltoes -11.676 0 0
rfemur -36.8123 3.18945 19.748
rtibia 38.0864 -0 0
rfoot -8.82239 1.9434 -0.157407
rtoes -18.4836 0 0
lowerback -7.37675 -3.60674 -3.85733
upperback -1.33673 -4.57839 2.38584
thorax 3.29695 -2.33211 4.09818
lowerneck -18.9949 -5.32432 -13.0944
upperneck 20.8139 -6.88337 13.4165
head 10.7848 -2.67637 6.03884
lclavicle -6.98231e-15 -4.17448e-14 0
lhumerus -32.9996 -33.2005 102.86
lradius 36.9824 -0 0
lwrist 9.72747 0 0
lhand -8.54548 -24.203 -0.0464282
lfingers 7.12502 -0 0
lthumb 17.3825 5.01842 -0.0498927
rclavicle -6.98231e-15 -4.17448e-14 0
rhumerus -46.1176 9.2205 -83.4441
rradius 33.1232 -0 0
rwrist -16.6634 0 0
rhand -28.9107 -25.017 -0.00147841
rfingers 7.12502 -0 0
rthumb -2.26549 -54.9814 -0.00159943
343
root 9.52251 16.5886 12.1059 6.67291 8.80289 1.20407
lfemur 11.6578 5.77503 -17.5129
ltibia 17.8085 -0 0
lfoot -1.79902 0.145647 -0.477923
ltoes -11.2139 0 0
rfemur -36.1662 3.35144 20.0621
rtibia 37.921 -0 0
rfoot -9.27565 1.9701 -0.158181
rtoes -18.4502 0 0
lowerback -7.29927 -3.49004 -3.73376
upperback -1.32272 -4.43527 2.39162
thorax 3.24739 -2.25869 4.0508
lowerneck -19.0371 -5.36474 -13.0748
upperneck 20.8406 -6.93816 13.3925
head 10.8095 -2.70078 6.01794
lclavicle -6.98231e-15 -4.17448e-14 0
lhumerus -33.5263 -32.7221 102.782
lradius 36.7108 -0 0
lwrist 9.8802 0 0
lhand -8.78579 -24.1241 -0.0497724
lfingers 7.12502 -0 0
lthumb 17.151 5.11516 -0.0536755
rclavicle -6.98231e-15 -4.17448e-14 0
rhumerus -45.6911 9.56563 -83.5011
rradius 33.538 -0 0
rwrist -16.896 0 0
rhand -28.9924 -25.0003 -0.00187479
rfingers 7.12502 -0 0
rthumb -2.34438 -54.9635 -0.00199367
344
root 9.5149 16.6062 12.2444 6.64777 8.695 1.06454
lfemur 9.92789 5.80742 -17.5145
ltibia 19.6675 -0 0
lfoot -2.32432 0.603 -0.51247
ltoes -10.7377 0 0
rfemur -35.4988 3.51228 20.3843
rtibia 37.7535 -0 0
rfoot -9.74545 1.99013 -0.157871
rtoes -18.4188 0 0
lowerback -7.21877 -3.3701 -3.60681
upperback -1.30768 -4.28792 2.39752
thorax 3.19671 -2.18317 4.0022
lowerneck -19.0818 -5.40533 -13.0539
upperneck 20.8691 -6.993 13.3667
head 10.8353 -2.72523 5.99618
lclavicle -6.98231e-15 -4.17448e-14 0
lhumerus -34.0519 -32.2248 102.685
lradius 36.4263 -0 0
lwrist 10.0326 0 0
lhand -9.03554 -24.0434 -0.0527995
lfingers 7.12502 -0 0
lthumb 16.9105 5.21452 -0.0571035
rclavicle -6.98231e-15 -4.17448e-14 0
rhumerus -45.2538 9.9186 -83.5568
rradius 33.9669 -0 0
rwrist -17.1374 0 0
rhand -29.0765 -24.981 -0.00226549
rfingers 7.12502 -0 0
rthumb -2.42553 -54.9432 -0.00238104
345
root 9.50728 16.6239 12.3829 6.62187 8.57985 0.922379
lfemur 8.15046 5.84009 -17.5232
ltibia 21.5644 -0 0
lfoot -2.86897 1.07266 -0.54336
ltoes -10.2497 0 0
rfemur -34.8112 3.67138 20.7139
rtibia 37.583 -0 0
rfoot -10.2293 2.00411 -0.156604
rtoes -18.3892 0 0
lowerback -7.13571 -3.24723 -3.47676
upperback -1.2917 -4.13674 2.40357
thorax 3.14515 -2.10576 3.95251
lowerneck -19.1288 -5.446 -13.0318
upperneck 20.8993 -7.04781 13.3392
head 10.862 -2.74966 5.97369
lclavicle -6.98231e-15 -4.17448e-14 0
lhumerus -34.5759 -31.7107 102.571
lradius 36.1299 -0 0
lwrist 10.1843 0 0
lhand -9.29333 -23.9609 -0.0554667
lfingers 7.12502 -0 0
lthumb 16.6622 5.31616 -0.0601245
rclavicle -6.98231e-15 -4.17448e-14 0
rhumerus -44.807 10.2782 -83.611
rradius 34.4082 -0 0
rwrist -17.3864 0 0
rhand -29.1625 -24.9596 -0.00264194
rfingers 7.12502 -0 0
rthumb -2.50859 -54.9206 -0.00275311
346
root 9.49966 16.6415 12.5214 6.59538 8.45794 0.777835
lfemur 6.33178 5.87238 -17.5383
ltibia 23.4916 -0 0
lfoot -3.43026 1.55283 -0.570083
ltoes -9.75219 0 0
rfemur -34.1046 3.82821 21.0502
rtibia 37.409 -0 0
rfoot -10.7247 2.0127 -0.154502
rtoes -18.3611 0 0
lowerback -7.05054 -3.12175 -3.34389
upperback -1.27488 -3.98209 2.40979
thorax 3.09294 -2.02664 3.90186
lowerneck -19.1777 -5.48668 -13.0086
upperneck 20.9309 -7.10248 13.3104
head 10.8895 -2.77404 5.95055
lclavicle -6.98231e-15 -4.17448e-14 0
lhumerus -35.0981 -31.1818 102.441
lradius 35.8232 -0 0
lwrist 10.3348 0 0
lhand -9.55777 -23.8769 -0.0577364
lfingers 7.12502 -0 0
lthumb 16.4075 5.41975 -0.0626926
rclavicle -6.98231e-15 -4.17448e-14 0
rhumerus -44.352 10.643 -83.6633
rradius 34.8597 -0 0
rwrist -17.6417 0 0
rhand -29.2501 -24.9361 -0.00299616
rfingers 7.12502 -0 0
rthumb -2.5932 -54.896 -0.00310205
347
root 9.49205 16.6592 12.6598 6.56851 8.32975 0.631162
lfemur 4.47812 5.90368 -17.5593
ltibia 25.4415 -0 0
lfoot -4.00545 2.04169 -0.592199
ltoes -9.24741 0 0
rfemur -33.3803 3.98225 21.3922
rtibia 37.2306 -0 0
rfoot -11.2291 2.01651 -0.15168
rtoes -18.3345 0 0
lowerback -6.96372 -2.99399 -3.20845
upperback -1.2573 -3.82436 2.41621
thorax 3.0403 -1.94601 3.85039
lowerneck -19.2282 -5.52729 -12.9845
upperneck 20.9637 -7.15692 13.2803
head 10.9177 -2.79832 5.92689
lclavicle -6.98231e-15 -4.17448e-14 0
lhumerus -35.618 -30.64 102.297
lradius 35.5074 -0 0
lwrist 10.4836 0 0
lhand -9.82749 -23.7917 -0.0595767
lfingers 7.12502 -0 0
lthumb 16.1477 5.52495 -0.0647689
rclavicle -6.98231e-15 -4.17448e-14 0
rhumerus -43.89 11.012 -83.7136
rradius 35.3196 -0 0
rwrist -17.902 0 0
rhand -29.3389 -24.9108 -0.00332091
rfingers 7.12502 -0 0
rthumb -2.67902 -54.8695 -0.00342076
348
root 9.48443 16.6768 12.7983 6.54144 8.19576 0.482611
lfemur 2.59579 5.9334 -17.5854
ltibia 27.4064 -0 0
lfoot -4.59179 2.53742 -0.609344
ltoes -8.73765 0 0
rfemur -32.6393 4.13301 21.7391
rtibia 37.0471 -0 0
rfoot -11.7399 2.01618 -0.148245
rtoes -18.3091 0 0
lowerback -6.87569 -2.86426 -3.07074
upperback -1.23907 -3.66392 2.42284
thorax 2.98748 -1.86407 3.79824
lowerneck -19.2802 -5.56774 -12.9597
upperneck 20.9977 -7.21104 13.2491
head 10.9464 -2.82247 5.90281
lclavicle -6.98231e-15 -4.17448e-14 0
lhumerus -36.1355 -30.0874 102.139
lradius 35.1839 -0 0
lwrist 10.6303 0 0
lhand -10.1011 -23.7055 -0.0609616
lfingers 7.12502 -0 0
lthumb 15.8842 5.63145 -0.0663222
rclavicle -6.98231e-15 -4.17448e-14 0
rhumerus -43.4224 11.3837 -83.7617
rradius 35.7859 -0 0
rwrist -18.166 0 0
rhand -29.4287 -24.8839 -0.00360976
rfingers 7.12502 -0 0
rthumb -2.76568 -54.8414 -0.00370296
